<svg viewBox="0 0 1200 40" xmlns="http://www.w3.org/2000/svg" preserveAspectRatio="none" aria-hidden="true">
  <g fill="none" stroke="#B7AC90" stroke-width="1.4" opacity="0.6">
    <line x1="0" y1="32" x2="1200" y2="32"/>
    <rect x="20" y="20" width="10" height="12"/>
    <rect x="34" y="24" width="8" height="8"/>
    <rect x="160" y="14" width="14" height="18"/>
    <rect x="178" y="20" width="9" height="12"/>
    <rect x="330" y="10" width="16" height="22"/>
    <rect x="350" y="18" width="10" height="14"/>
    <rect x="500" y="22" width="9" height="10"/>
    <rect x="514" y="16" width="12" height="16"/>
    <rect x="660" y="8" width="18" height="24"/>
    <rect x="682" y="19" width="9" height="13"/>
    <rect x="830" y="18" width="11" height="14"/>
    <rect x="846" y="12" width="14" height="20"/>
    <rect x="1000" y="21" width="9" height="11"/>
    <rect x="1014" y="15" width="13" height="17"/>
    <rect x="1150" y="17" width="12" height="15"/>
  </g>
</svg>
